<svg id="Layer_1" data-name="Layer 1" xmlns="http://www.w3.org/2000/svg" viewBox="0 0 64 64"><path d="M32,24.56a4,4,0,0,0-4-4H25v1a6,6,0,0,0,6,6v4.11a5,5,0,0,0-3.58,2.89,9.53,9.53,0,0,0,.93.38c.32.11.64.21,1,.29a11,11,0,0,0,5.36,0c.33-.08.65-.18,1-.29a9.53,9.53,0,0,0,.93-.38A5,5,0,0,0,33,31.67V27.56a6,6,0,0,0,6-6v-1H36A4,4,0,0,0,32,24.56Z" id="id_103" style="fill: rgb(159, 191, 19);"></path><path d="M54,24.56a22,22,0,0,0-44-.27v.23A18.56,18.56,0,0,0,13.3,35l17,25.17a2,2,0,0,0,3.32,0L50.25,35.61a21.65,21.65,0,0,0,3.7-10C54,25.21,54,24.87,54,24.56Zm-22,13a13,13,0,1,1,13-13A13,13,0,0,1,32,37.56Z" id="id_104" style="fill: rgb(32, 89, 16);"></path></svg>